<?xml version="1.0" encoding="UTF-8"?>
<svg id="Layer_1" data-name="Layer 1" xmlns="http://www.w3.org/2000/svg" viewBox="0 0 194.73 259.06">
  <defs>
    <style>
      .cls-1 {
        fill: #fff;
      }
    </style>
  </defs>
  <path class="cls-1" d="M185.05,128.48c13.5,51.03,16.62,99.13-15.5,121.21-38.33,26.34-93.28-7.44-143.33-47.85C.99,181.47-6.74,137.64,6.12,110.02c6.04-12.99,31.28-16.72,47.48-29.04,17.3-10.71,29.83-32.93,44.12-33.92,15.11-1.04,32.14,4.1,46.68,13.33-5.45,14.77-7.92,43.9,40.66,68.09ZM47.65,78.47c4.2-9.3,8.17-18.93,11.94-28.64,5.9-15.19,5.01-33.32-.5-49.83-13.55,8.01-33.86,29.05-11.45,78.47Z"/>
</svg>